<svg xmlns="http://www.w3.org/2000/svg"  viewBox="0 0 48 48" width="96px" height="96px"><linearGradient id="r4SWwybU7j4LfAsY72Au3a" x1="22.223" x2="25.856" y1="5.68" y2="40.419" gradientUnits="userSpaceOnUse"><stop offset="0" stop-color="#626363"/><stop offset=".15" stop-color="#5b5c5c"/><stop offset=".638" stop-color="#4b4b4c"/><stop offset="1" stop-color="#454546"/></linearGradient><path fill="url(#r4SWwybU7j4LfAsY72Au3a)" d="M34.412,42H13.589c-0.363,0-0.698-0.197-0.874-0.515L3.539,24.964 c-0.335-0.604-0.335-1.339,0-1.943l9.174-16.507C12.891,6.197,13.225,6,13.588,6h20.823c0.363,0,0.698,0.197,0.874,0.514L45,24 l-9.714,17.486C35.109,41.803,34.775,42,34.412,42z"/><linearGradient id="r4SWwybU7j4LfAsY72Au3b" x1="21.97" x2="26.975" y1="6.952" y2="31.462" gradientUnits="userSpaceOnUse"><stop offset="0" stop-color="#f5f6f6"/><stop offset=".697" stop-color="#c3c4c4"/><stop offset="1" stop-color="#acadad"/></linearGradient><path fill="url(#r4SWwybU7j4LfAsY72Au3b)" d="M46,32V16c0-0.552-0.448-1-1-1H7.998 L3.54,23.021c-0.336,0.604-0.336,1.338,0,1.943L8.002,33H45C45.552,33,46,32.552,46,32z"/><linearGradient id="r4SWwybU7j4LfAsY72Au3c" x1="19.807" x2="15.133" y1="11.308" y2="32.4" gradientUnits="userSpaceOnUse"><stop offset=".333" stop-color="#51e6fb"/><stop offset=".688" stop-color="#28bce6"/><stop offset="1" stop-color="#0094d1"/></linearGradient><polygon fill="url(#r4SWwybU7j4LfAsY72Au3c)" points="17,12 20,12 22,15 16.937,24 22,33 20,36 17,36 9.994,24"/><linearGradient id="r4SWwybU7j4LfAsY72Au3d" x1="15.273" x2="22.755" y1="23.849" y2="39.474" gradientUnits="userSpaceOnUse"><stop offset=".333" stop-color="#51e6fb"/><stop offset=".466" stop-color="#4ce1f8"/><stop offset=".624" stop-color="#3ed3f1"/><stop offset=".795" stop-color="#26bbe5"/><stop offset=".975" stop-color="#0599d4"/><stop offset="1" stop-color="#0094d1"/></linearGradient><polygon fill="url(#r4SWwybU7j4LfAsY72Au3d)" points="20,36 13,24 16.937,24 22,33"/><linearGradient id="r4SWwybU7j4LfAsY72Au3e" x1="13.664" x2="13.72" y1="12.658" y2="12.878" gradientUnits="userSpaceOnUse"><stop offset=".333" stop-color="#51e6fb"/><stop offset=".466" stop-color="#4ce1f8"/><stop offset=".624" stop-color="#3ed3f1"/><stop offset=".795" stop-color="#26bbe5"/><stop offset=".975" stop-color="#0599d4"/><stop offset="1" stop-color="#0094d1"/></linearGradient><polygon fill="url(#r4SWwybU7j4LfAsY72Au3e)" points="20,12 11.485,26.555 10,24 17,12"/><linearGradient id="r4SWwybU7j4LfAsY72Au3f" x1="33.29" x2="28.142" y1="9.39" y2="49.524" gradientUnits="userSpaceOnUse"><stop offset=".014" stop-color="#51e6fb"/><stop offset=".281" stop-color="#38ccee"/><stop offset=".755" stop-color="#0fa4d9"/><stop offset="1" stop-color="#0094d1"/></linearGradient><polygon fill="url(#r4SWwybU7j4LfAsY72Au3f)" points="30.99,12 27.99,12 25.99,15 31.053,24 25.99,33 27.99,36 30.99,36 37.996,24"/><linearGradient id="r4SWwybU7j4LfAsY72Au3g" x1="30.49" x2="30.49" y1="22.773" y2="23.896" gradientUnits="userSpaceOnUse"><stop offset=".333" stop-color="#51e6fb"/><stop offset=".466" stop-color="#4ce1f8"/><stop offset=".624" stop-color="#3ed3f1"/><stop offset=".795" stop-color="#26bbe5"/><stop offset=".975" stop-color="#0599d4"/><stop offset="1" stop-color="#0094d1"/></linearGradient><polygon fill="url(#r4SWwybU7j4LfAsY72Au3g)" points="27.99,36 34.99,24 31.053,24 25.99,33"/><linearGradient id="r4SWwybU7j4LfAsY72Au3h" x1="29.762" x2="37.631" y1="11.938" y2="26.7" gradientUnits="userSpaceOnUse"><stop offset="0" stop-color="#51e6fb"/><stop offset=".468" stop-color="#4fe4fa"/><stop offset=".637" stop-color="#48ddf7"/><stop offset=".757" stop-color="#3dd2f1"/><stop offset=".854" stop-color="#2cc1e8"/><stop offset=".936" stop-color="#17abdd"/><stop offset="1" stop-color="#0094d1"/></linearGradient><polygon fill="url(#r4SWwybU7j4LfAsY72Au3h)" points="27.99,12 35,24 36.528,21.485 37.996,24 30.99,12"/></svg>